<svg width="48" height="48" viewBox="0 0 48 48" fill="none" xmlns="http://www.w3.org/2000/svg">
<rect width="48" height="48" rx="24" fill="#9F0000"/>
<path d="M31.0595 19.0594C31.6454 18.4734 31.6454 17.5219 31.0595 16.9359C30.4735 16.35 29.522 16.35 28.936 16.9359L24.0001 21.8766L19.0595 16.9406C18.4735 16.3547 17.522 16.3547 16.936 16.9406C16.3501 17.5266 16.3501 18.4781 16.936 19.0641L21.8767 24L16.9407 28.9406C16.3548 29.5266 16.3548 30.4781 16.9407 31.0641C17.5267 31.65 18.4782 31.65 19.0642 31.0641L24.0001 26.1234L28.9407 31.0594C29.5267 31.6453 30.4782 31.6453 31.0642 31.0594C31.6501 30.4734 31.6501 29.5219 31.0642 28.9359L26.1235 24L31.0595 19.0594Z" fill="white"/>
</svg>
